<svg id="Group_1" data-name="Group 1" xmlns="http://www.w3.org/2000/svg" width="54" height="26.801" viewBox="0 0 54 26.801">
  <path id="Path_1" data-name="Path 1" d="M50.418,1.057A5.4,5.4,0,0,1,47.244,2a5.4,5.4,0,0,1-3.174-.943,6.595,6.595,0,0,0-7.162,0A5.4,5.4,0,0,1,33.736,2a5.386,5.386,0,0,1-3.168-.943A6.122,6.122,0,0,0,26.991,0a6.126,6.126,0,0,0-3.579,1.057A5.391,5.391,0,0,1,20.242,2a5.393,5.393,0,0,1-3.17-.943A6.123,6.123,0,0,0,13.494,0,6.122,6.122,0,0,0,9.917,1.057,5.388,5.388,0,0,1,6.747,2a5.387,5.387,0,0,1-3.169-.943A6.123,6.123,0,0,0,0,0V.8a5.388,5.388,0,0,1,3.17.943A6.122,6.122,0,0,0,6.747,2.8a6.123,6.123,0,0,0,3.578-1.057A5.385,5.385,0,0,1,13.494.8a5.391,5.391,0,0,1,3.17.943A6.123,6.123,0,0,0,20.242,2.8,6.123,6.123,0,0,0,23.82,1.744a5.8,5.8,0,0,1,6.34,0A6.116,6.116,0,0,0,33.736,2.8a6.128,6.128,0,0,0,3.58-1.057,5.81,5.81,0,0,1,6.346,0A6.135,6.135,0,0,0,47.244,2.8a6.135,6.135,0,0,0,3.582-1.057A5.4,5.4,0,0,1,54,.8V0A6.135,6.135,0,0,0,50.418,1.057Z"/>
  <path id="Path_2" data-name="Path 2" d="M47.244,8a5.4,5.4,0,0,1-3.174-.943,6.595,6.595,0,0,0-7.162,0,5.8,5.8,0,0,1-6.34,0A6.122,6.122,0,0,0,26.991,6a6.126,6.126,0,0,0-3.579,1.057A5.391,5.391,0,0,1,20.242,8a5.393,5.393,0,0,1-3.17-.943A6.123,6.123,0,0,0,13.494,6,6.122,6.122,0,0,0,9.917,7.057,5.388,5.388,0,0,1,6.747,8a5.387,5.387,0,0,1-3.169-.943A6.123,6.123,0,0,0,0,6v.8a5.388,5.388,0,0,1,3.17.943A6.122,6.122,0,0,0,6.747,8.8a6.123,6.123,0,0,0,3.578-1.057A5.385,5.385,0,0,1,13.494,6.8a5.391,5.391,0,0,1,3.17.943A6.123,6.123,0,0,0,20.242,8.8,6.123,6.123,0,0,0,23.82,7.744a5.8,5.8,0,0,1,6.34,0,6.584,6.584,0,0,0,7.156,0,5.81,5.81,0,0,1,6.346,0,6.6,6.6,0,0,0,7.164,0A5.4,5.4,0,0,1,54,6.8V6a6.135,6.135,0,0,0-3.582,1.057A5.4,5.4,0,0,1,47.244,8Z"/>
  <path id="Path_3" data-name="Path 3" d="M47.244,14a5.4,5.4,0,0,1-3.174-.943,6.595,6.595,0,0,0-7.162,0,5.8,5.8,0,0,1-6.34,0A6.122,6.122,0,0,0,26.991,12a6.126,6.126,0,0,0-3.579,1.057,5.391,5.391,0,0,1-3.17.943,5.393,5.393,0,0,1-3.17-.943A6.123,6.123,0,0,0,13.494,12a6.122,6.122,0,0,0-3.577,1.057A5.388,5.388,0,0,1,6.747,14a5.387,5.387,0,0,1-3.169-.943A6.123,6.123,0,0,0,0,12v.8a5.388,5.388,0,0,1,3.17.943A6.122,6.122,0,0,0,6.747,14.8a6.123,6.123,0,0,0,3.578-1.057,5.385,5.385,0,0,1,3.169-.943,5.391,5.391,0,0,1,3.17.943A6.123,6.123,0,0,0,20.242,14.8a6.123,6.123,0,0,0,3.578-1.057,5.8,5.8,0,0,1,6.34,0,6.584,6.584,0,0,0,7.156,0,5.81,5.81,0,0,1,6.346,0,6.6,6.6,0,0,0,7.164,0A5.4,5.4,0,0,1,54,12.8V12a6.135,6.135,0,0,0-3.582,1.057A5.4,5.4,0,0,1,47.244,14Z"/>
  <path id="Path_4" data-name="Path 4" d="M47.244,20a5.4,5.4,0,0,1-3.174-.943,6.595,6.595,0,0,0-7.162,0,5.8,5.8,0,0,1-6.34,0A6.122,6.122,0,0,0,26.991,18a6.127,6.127,0,0,0-3.579,1.057,5.391,5.391,0,0,1-3.17.943,5.393,5.393,0,0,1-3.17-.943A6.123,6.123,0,0,0,13.494,18a6.122,6.122,0,0,0-3.577,1.057A5.388,5.388,0,0,1,6.747,20a5.387,5.387,0,0,1-3.169-.943A6.123,6.123,0,0,0,0,18v.8a5.389,5.389,0,0,1,3.17.943A6.122,6.122,0,0,0,6.747,20.8a6.123,6.123,0,0,0,3.578-1.057,5.385,5.385,0,0,1,3.169-.943,5.391,5.391,0,0,1,3.17.943A6.123,6.123,0,0,0,20.242,20.8a6.123,6.123,0,0,0,3.578-1.057,5.8,5.8,0,0,1,6.34,0,6.584,6.584,0,0,0,7.156,0,5.81,5.81,0,0,1,6.346,0,6.6,6.6,0,0,0,7.164,0A5.4,5.4,0,0,1,54,18.8V18a6.135,6.135,0,0,0-3.582,1.057A5.4,5.4,0,0,1,47.244,20Z"/>
  <path id="Path_5" data-name="Path 5" d="M47.244,26a5.4,5.4,0,0,1-3.174-.943,6.595,6.595,0,0,0-7.162,0,5.8,5.8,0,0,1-6.34,0A6.122,6.122,0,0,0,26.991,24a6.127,6.127,0,0,0-3.579,1.057,5.391,5.391,0,0,1-3.17.943,5.393,5.393,0,0,1-3.17-.943A6.123,6.123,0,0,0,13.494,24a6.122,6.122,0,0,0-3.577,1.057A5.388,5.388,0,0,1,6.747,26a5.387,5.387,0,0,1-3.169-.943A6.123,6.123,0,0,0,0,24v.8a5.389,5.389,0,0,1,3.17.943A6.122,6.122,0,0,0,6.747,26.8a6.123,6.123,0,0,0,3.578-1.057,5.385,5.385,0,0,1,3.169-.943,5.391,5.391,0,0,1,3.17.943A6.123,6.123,0,0,0,20.242,26.8a6.123,6.123,0,0,0,3.578-1.057,5.8,5.8,0,0,1,6.34,0,6.584,6.584,0,0,0,7.156,0,5.81,5.81,0,0,1,6.346,0,6.6,6.6,0,0,0,7.164,0A5.4,5.4,0,0,1,54,24.8V24a6.135,6.135,0,0,0-3.582,1.057A5.4,5.4,0,0,1,47.244,26Z"/>
</svg>
